<svg xmlns="http://www.w3.org/2000/svg" version="1.1" xmlns:xlink="http://www.w3.org/1999/xlink" xmlns:svgjs="http://svgjs.dev/svgjs" width="100%" height="100%" viewBox="0 0 1000 600"><rect width="1000" height="600" x="0" y="0" fill="#f8f9fa"/><g><circle r="166.66666666666666" cx="415.43007914225257" cy="437.65228792188566" fill="#000000" transform="matrix(0.5024855615141205,0,0,0.5024855615141205,0,80.08605320602315)"/><path d="M333.5858023168295 512.652299501556L333.5858023168295 362.65229759579546L356.5916310853899 362.65229759579546Q364.2352614905794 362.65229759579546 372.4034547667132 363.6264857846922Q380.5716480428471 364.60067397358887 387.5907988397694 367.8729471209086Q394.60994963669174 371.1701994525589 398.9563277102309 378.03947514349716Q403.30270578376997 384.88377165010473 403.30270578376997 396.6489674698571L403.30270578376997 396.6489674698571L403.30270578376997 403.942889294417Q403.30270578376997 415.88293940448415 397.6324309407046 423.3766947036895Q391.98713528196987 430.8954291872256 385.0429220380396 433.4433059889554L385.0429220380396 433.4433059889554L385.0429220380396 434.1427231502146Q395.23442924495885 438.18935101178545 400.5050371387333 445.73306467965216Q405.7756450325077 453.2767783475189 405.7756450325077 466.64064196443513L405.7756450325077 466.64064196443513L405.7756450325077 474.2842723696246Q405.7756450325077 486.4741143229986 401.85391309259023 494.0677863595267Q397.9571603370035 501.68643758038553 391.187801383388 505.70808625762567Q384.4184424297724 509.7547141191966 375.72568628269426 511.20350681037627Q367.032930135616 512.652299501556 357.4659025369639 512.652299501556L357.4659025369639 512.652299501556L333.5858023168295 512.652299501556ZM356.31686005775236 426.8488013256547L360.26357118200053 426.8488013256547Q369.4059526470311 426.8488013256547 374.8514148311203 422.3275689618008Q380.29687701520953 417.8063365979469 380.29687701520953 407.26512081039806L380.29687701520953 407.26512081039806L380.29687701520953 401.1202414650496Q380.29687701520953 390.6789424148235 375.90054057300904 384.95870920309676Q371.5042041308086 379.2634551757007 360.26357118200053 379.2634551757007L360.26357118200053 379.2634551757007L356.31686005775236 379.2634551757007L356.31686005775236 426.8488013256547ZM356.31686005775236 496.0661211059815L362.3868018501087 496.0661211059815Q371.5042041308086 496.0661211059815 376.9246871305671 491.5199095577969Q382.32019094599497 486.998677193943 382.32019094599497 476.4824405907248L382.32019094599497 476.4824405907248L382.32019094599497 464.7921823239645Q382.32019094599497 454.2509665364156 377.9738128724558 448.5806916933502Q373.62743479891674 442.9353960346155 362.3868018501087 442.9353960346155L362.3868018501087 442.9353960346155L356.31686005775236 442.9353960346155L356.31686005775236 496.0661211059815ZM424.8097834924893 512.652299501556L424.8097834924893 362.65229759579546L447.56582041774294 362.65229759579546L447.56582041774294 425.44996700313635L474.51836031055154 425.44996700313635L474.51836031055154 362.65229759579546L497.2743972358051 362.65229759579546L497.2743972358051 512.652299501556L474.51836031055154 512.652299501556L474.51836031055154 443.36004216823716L447.56582041774294 443.36004216823716L447.56582041774294 512.652299501556L424.8097834924893 512.652299501556Z " fill="#f8f9fa" transform="matrix(0.5024855615141205,0,0,0.5024855615141205,0,80.08605320602315)"/><path d="M665.4300940141314 511.40452165565415L665.4300940141314 377.6032732772689L716.5664578823071 377.6032732772689L716.5664578823071 393.57920917856814L685.7063864411641 393.57920917856814L685.7063864411641 433.61931631195006L709.9265291534546 433.61931631195006L709.9265291534546 449.59525221324935L685.7063864411641 449.59525221324935L685.7063864411641 495.42858575435486L716.5664578823071 495.42858575435486L716.5664578823071 511.40452165565415L665.4300940141314 511.40452165565415ZM728.7099516984969 511.40452165565415L728.7099516984969 403.5391022718468L743.8391852786674 403.5391022718468L745.7999696012814 415.0587101672049L745.7999696012814 415.125555087294Q750.4122690874307 407.6834873173721 756.2946220552731 404.9874088737777Q762.1769750231155 402.2913304301832 768.126172911047 402.2913304301832L768.126172911047 402.2913304301832Q777.529025003583 402.2913304301832 782.6983654904749 408.95354079906537Q787.8677059773667 415.5934695279178 787.8677059773667 428.7619187854741L787.8677059773667 428.7619187854741L787.8677059773667 511.40452165565415L768.0370463509282 511.40452165565415L768.0370463509282 431.1014909885933Q768.0370463509282 423.99364781911703 765.853445628017 421.20844281540377Q763.6475632650761 418.4232378116905 759.414051659432 418.4232378116905L759.414051659432 418.4232378116905Q756.450593535481 418.4232378116905 753.6208252517083 420.38402213430464Q750.8133386079653 422.3448064569188 748.5406113249353 425.77617902149353L748.5406113249353 425.77617902149353L748.5406113249353 511.40452165565415L728.7099516984969 511.40452165565415ZM805.2473852005375 467.2200294767469L805.2473852005375 467.2200294767469L805.2473852005375 446.85461048959553Q805.2473852005375 434.48830027310856 807.3195777233001 426.33322002223616Q809.3917702460628 418.1781397713637 812.7785795305781 413.32074224488775Q816.1431071750637 408.46334471841186 820.2206473005 406.1237725152927Q824.2759057859065 403.7842003121736 828.2866009912536 403.02662455116354Q832.275014556571 402.2913304301832 835.5726972809675 402.2913304301832L835.5726972809675 402.2913304301832Q846.5352641755828 402.2913304301832 853.353446024673 408.08455683790686Q860.1716278737631 413.87778324563044 860.1716278737631 426.0212770618203L860.1716278737631 426.0212770618203Q860.1716278737631 429.6977476667218 859.8151216332877 432.4383893903757Q859.4586153928125 435.1790311140295 858.8347294719807 437.6968564373863L858.8347294719807 437.6968564373863L843.7946224519291 437.6968564373863L843.7946224519291 434.3323287929007Q843.7946224519291 426.1772485420282 841.5664584489584 421.5872306959088Q839.3160128059582 417.019494489819 834.9488113601358 417.019494489819L834.9488113601358 417.019494489819Q830.1582587537489 417.019494489819 827.6627150704218 422.30024317685934Q825.144889747065 427.5809918638997 825.144889747065 441.52929852249576L825.144889747065 441.52929852249576L825.144889747065 472.16655356334167Q825.144889747065 486.24855006211595 827.3730537500356 492.0640581098692Q829.6012177530063 497.85728451759286 835.4167258007595 497.85728451759286L835.4167258007595 497.85728451759286Q838.3801839247104 497.85728451759286 841.0762623683049 494.67100999334485Q843.7946224519291 491.5070171091266 843.7946224519291 482.9731489777492L843.7946224519291 482.9731489777492L843.7946224519291 478.2717229314812L859.8374032733175 478.2717229314812L859.8374032733175 483.19596537804625Q859.8374032733175 498.54801535851374 853.2643194645542 505.56673196787114Q846.6912356557909 512.5854485772286 833.2108434378187 512.5854485772286L833.2108434378187 512.5854485772286Q819.5744797396385 512.5854485772286 812.4220732901028 501.9348246430291Q805.2473852005375 491.26191906879984 805.2473852005375 467.2200294767469ZM894.5521984395996 451.48919161577436L894.5521984395996 451.48919161577436Q897.5379382035802 449.9963217337841 900.969310768155 448.41432529167497Q904.4229649727595 446.85461048959553 907.3195781766212 445.82965504822903L907.3195781766212 445.82965504822903L907.3195781766212 432.75033235079155Q907.3195781766212 428.6727922253553 906.963071936146 425.1522931006617Q906.6065656956706 421.63179397596815 904.8463161333239 419.4036299729976Q903.0860665709771 417.17546597002695 898.852554965333 417.17546597002695L898.852554965333 417.17546597002695Q894.6190433596887 417.17546597002695 891.2545157152031 420.6068385346017Q887.8899880707174 424.06049273920615 887.8899880707174 433.3742182716233L887.8899880707174 433.3742182716233L887.8899880707174 437.6968564373863L872.7830361305766 437.6968564373863Q871.3570111686755 431.5916870692468 871.3570111686755 427.0462325031868L871.3570111686755 427.0462325031868Q871.3570111686755 414.969583607086 879.2669933792213 408.6638794786792Q887.1769755897669 402.35817535027235 899.4764408861647 402.35817535027235L899.4764408861647 402.35817535027235Q910.216191380483 402.35817535027235 916.2545158285334 405.3884783943124Q922.2705586365541 408.39649979832274 924.699257399792 414.4571058864028Q927.1279561630299 420.5399936145126 927.1279561630299 429.85371914692973L927.1279561630299 429.85371914692973L927.1279561630299 511.40452165565415L911.8650327426813 511.40452165565415L910.4612894208099 502.1576410433261Q907.3195781766212 506.7030956093862 902.1502376897295 509.68883537336677Q896.9808972028376 512.6522934973177 890.1627153537474 512.6522934973177L890.1627153537474 512.6522934973177Q883.1217171043604 512.6522934973177 878.5762625383004 509.064949452535Q874.0308079722403 505.45532376772263 871.8026439692696 499.5284075198208Q869.5521983262693 493.6237729119487 869.5521983262693 486.6496195826507L869.5521983262693 486.6496195826507Q869.5521983262693 473.3251988448864 875.9024657347356 465.45977991440014Q882.2527331432018 457.5943609839139 894.5521984395996 451.48919161577436ZM898.9416815254517 497.545341557177L898.9416815254517 497.545341557177Q901.4372252087788 497.545341557177 903.5539810116009 496.253006435454Q905.670736814423 494.9606713137311 907.3195781766212 493.06673191120603L907.3195781766212 493.06673191120603L907.3195781766212 459.0872308659042Q905.8267082946309 459.71111678673594 904.1110220123435 460.55781910786476Q902.3730540900265 461.4268030690233 900.1226084470262 462.8305463908948L900.1226084470262 462.8305463908948Q895.9559417614712 465.4152166343407 892.3463160766587 470.56227548120285Q888.758972031876 475.68705268803524 888.758972031876 483.59703489858094L888.758972031876 483.59703489858094Q888.758972031876 489.7913308268392 891.187670795114 493.6683361920081Q893.616369558352 497.545341557177 898.9416815254517 497.545341557177ZM947.1145872696763 511.40452165565415L947.1145872696763 403.5391022718468L962.2215392098171 403.5391022718468L964.1823235324313 415.0587101672049L964.1823235324313 415.125555087294Q968.8169046586102 407.6834873173721 974.6769759864228 404.9874088737777Q980.5593289542653 402.2913304301832 986.5085268421968 402.2913304301832L986.5085268421968 402.2913304301832Q995.9113789347327 402.2913304301832 1001.0807194216246 408.95354079906537Q1006.2500599085165 415.5934695279178 1006.2500599085165 428.7619187854741L1006.2500599085165 428.7619187854741L1006.2500599085165 511.40452165565415L986.4416819221077 511.40452165565415L986.4416819221077 431.1014909885933Q986.4416819221077 423.99364781911703 984.2357995591667 421.20844281540377Q982.0521988362557 418.4232378116905 977.8186872306114 418.4232378116905L977.8186872306114 418.4232378116905Q974.8329474666308 418.4232378116905 972.0254608228879 420.38402213430464Q969.1956925391152 422.3448064569188 966.9229652560851 425.77617902149353L966.9229652560851 425.77617902149353L966.9229652560851 511.40452165565415L947.1145872696763 511.40452165565415ZM1027.885532377361 484.5328637798286L1027.885532377361 418.57920929189845L1018.7054966851222 418.57920929189845L1018.7054966851222 403.5391022718468L1029.6012186596486 403.5391022718468L1033.589632224966 375.5756440345656L1047.6939103637699 375.5756440345656L1047.6939103637699 403.5391022718468L1065.7197571478023 403.5391022718468L1065.7197571478023 418.57920929189845L1047.6939103637699 418.57920929189845L1047.6939103637699 484.6888352600365Q1047.6939103637699 491.75211514945335 1050.2340173271564 493.6237729119487Q1052.7741242905429 495.495430674444 1056.2277784951473 495.495430674444L1056.2277784951473 495.495430674444Q1061.709061942455 495.495430674444 1065.6306305876833 493.06673191120603L1065.6306305876833 493.06673191120603L1065.6306305876833 505.6112952479306Q1062.2661029431977 509.7556802934559 1057.7874932972268 511.20398689538683Q1053.3311652912855 512.6522934973177 1049.1867802457602 512.6522934973177L1049.1867802457602 512.6522934973177Q1043.7054967984525 512.6522934973177 1038.8035359919172 510.5132560544659Q1033.9015751853817 508.35193697158445 1030.8935537813713 502.2690492434747Q1027.885532377361 496.2084431553946 1027.885532377361 484.5328637798286L1027.885532377361 484.5328637798286ZM1105.2696682005305 512.5854485772286L1105.2696682005305 512.5854485772286Q1100.1003277136388 512.5854485772286 1094.841860666628 511.0480154151789Q1089.6056752596471 509.5328638931589 1085.1716288937355 504.8314378468909Q1080.7598641678537 500.13001180062287 1078.086067364289 490.61575150793834Q1075.4122705607242 481.0792095752241 1075.4122705607242 465.10327367392483L1075.4122705607242 465.10327367392483L1075.4122705607242 448.19150889137785Q1075.4122705607242 432.4383893903757 1078.1751939244077 423.236072058107Q1080.9158356480616 414.0337547258384 1085.372163654003 409.53286343983774Q1089.8284916599441 405.0319721538371 1095.0869587069549 403.65051047199535Q1100.3231441139358 402.2913304301832 1105.3365131206197 402.2913304301832L1105.3365131206197 402.2913304301832Q1110.1939106470957 402.2913304301832 1115.3632511339874 403.5836655519062Q1120.5325916208792 404.87600067362916 1124.9220747067313 409.287765399511Q1129.3115577925835 413.7218117654225 1132.0521995162371 423.01325565780996Q1134.7928412398912 432.2824179101677 1134.7928412398912 448.19150889137785L1134.7928412398912 448.19150889137785L1134.7928412398912 465.10327367392483Q1134.7928412398912 480.85639317492706 1131.9853545961482 490.30380854752246Q1129.1555863123756 499.7289422800882 1124.6992583064343 504.5417765265047Q1120.2206486604632 509.3768924129509 1115.095871453631 510.98117049508977Q1109.9710942467987 512.5854485772286 1105.2696682005305 512.5854485772286ZM1105.4256396807384 497.85728451759286L1105.4256396807384 497.85728451759286Q1110.7509516478383 497.85728451759286 1112.823144170601 491.97493154975047Q1114.8953366933636 486.092578581908 1114.8953366933636 470.9856266417673L1114.8953366933636 470.9856266417673L1114.8953366933636 444.11396876594165Q1114.8953366933636 428.91789026568205 1112.823144170601 422.96869237775053Q1110.7509516478383 417.019494489819 1105.4256396807384 417.019494489819L1105.4256396807384 417.019494489819Q1099.855229673312 417.019494489819 1097.582502390282 422.96869237775053Q1095.3097751072519 428.91789026568205 1095.3097751072519 444.11396876594165L1095.3097751072519 444.11396876594165L1095.3097751072519 470.9856266417673Q1095.3097751072519 486.092578581908 1097.582502390282 491.97493154975047Q1099.855229673312 497.85728451759286 1105.4256396807384 497.85728451759286ZM1147.3374045766157 488.83322030556184L1147.3374045766157 488.83322030556184Q1147.3374045766157 485.3127211808683 1148.005853777507 482.0373200965015Q1148.6743029783981 478.739637372105 1149.29818889923 476.77885304949086L1149.29818889923 476.77885304949086L1163.246495557826 476.77885304949086Q1163.246495557826 488.52127734514596 1166.1653904017173 493.2004217513843Q1169.1065668856386 497.85728451759286 1174.5878503329463 497.85728451759286L1174.5878503329463 497.85728451759286Q1178.5094189781746 497.85728451759286 1180.6930197010856 495.4731490344143Q1182.8989020640267 493.06673191120603 1182.8989020640267 489.7913308268392L1182.8989020640267 489.7913308268392Q1182.8989020640267 486.33767662223477 1181.0495259415611 483.1291204579571Q1179.2224314591253 479.92056429367943 1176.0138752948474 476.06584056854024L1176.0138752948474 476.06584056854024L1162.1324135563405 458.9981043057854Q1156.4951586288248 451.86797949627936 1152.083393902943 444.0694054858822Q1147.6493475370316 436.2931131155148 1147.6493475370316 426.8902610229788L1147.6493475370316 426.8902610229788Q1147.6493475370316 418.4900827317796 1151.325818141933 413.0533625645313Q1155.0022887468347 407.61664239728304 1161.0406131948848 404.9428455937183Q1167.0789376429352 402.2913304301832 1174.1199358923225 402.2913304301832L1174.1199358923225 402.2913304301832Q1185.7955152678885 402.2913304301832 1192.7696685971864 407.8840220776395Q1199.7438219264845 413.47671372509575 1199.7438219264845 424.6843786600379L1199.7438219264845 424.6843786600379Q1199.7438219264845 428.3608492649394 1199.0753727255933 431.9259116696924Q1198.406923524702 435.4909740744454 1197.7830376038703 438.0087993978022L1197.7830376038703 438.0087993978022L1184.0798289856011 438.0087993978022Q1183.9238575053932 427.35817546360266 1181.5620036622445 422.18883497671084Q1179.2224314591253 417.019494489819 1173.8079929319065 417.019494489819L1173.8079929319065 417.019494489819Q1169.2625383658465 417.019494489819 1167.5468520835593 419.82698113356196Q1165.8311658012717 422.65674941733465 1165.8311658012717 426.0881219819094L1165.8311658012717 426.0881219819094Q1165.8311658012717 429.85371914692973 1167.7028235637672 432.8840221909698Q1169.5744813262625 435.89204359498007 1172.560221090243 439.65764076000045L1172.560221090243 439.65764076000045L1188.2242140311264 458.5970347852506Q1190.4969413141566 461.4268030690233 1193.482681078137 465.771722874816Q1196.446139202088 470.1166426806087 1198.6743032050585 475.57564448788673Q1200.924748848059 481.012364655135 1200.924748848059 487.36263206360127L1200.924748848059 487.36263206360127Q1200.924748848059 498.7039868387217 1193.7946240385531 505.65585852799Q1186.6644992290471 512.5854485772286 1173.4292050514014 512.5854485772286L1173.4292050514014 512.5854485772286Q1166.2099536817768 512.5854485772286 1160.2607557938452 510.357284574258Q1154.3115579059138 508.10683893125764 1150.81334042125 502.9152168043361Q1147.3374045766157 497.7013130373849 1147.3374045766157 488.83322030556184ZM1216.7447132691505 511.40452165565415L1216.7447132691505 377.6032732772689L1241.8784032226588 377.6032732772689L1255.2696688805122 431.74765854945474Q1257.3864246833343 440.2815266808322 1258.5673516049087 448.1469456113185Q1259.7482785264833 456.01236454180474 1260.75095232782 462.8305463908948L1260.75095232782 462.8305463908948L1261.3971198886816 462.8305463908948Q1262.488920250137 456.01236454180474 1263.625283891652 448.1469456113185Q1264.761647533167 440.2815266808322 1266.8784033359889 431.74765854945474L1266.8784033359889 431.74765854945474L1280.1136975136344 377.6032732772689L1305.247387467143 377.6032732772689L1305.247387467143 511.40452165565415L1287.0878508429325 511.40452165565415L1287.0878508429325 467.1531845566578Q1287.0878508429325 453.5168208584776 1287.4443570834078 441.52929852249576Q1287.7785816838534 429.54177618651386 1288.2910594045368 420.5399936145126Q1288.8035371252201 411.5382110425113 1289.2046066457547 406.8367849962433L1289.2046066457547 406.8367849962433L1287.7117367637643 406.8367849962433L1267.5022892568209 494.18081391269135L1254.6457829596802 494.18081391269135L1234.280363972529 406.8367849962433L1232.7874940905385 406.8367849962433Q1233.2554085311626 411.5382110425113 1233.745604611816 420.5399936145126Q1234.21351905244 429.54177618651386 1234.5477436528854 441.52929852249576Q1234.9042498933609 453.5168208584776 1234.9042498933609 467.1531845566578L1234.9042498933609 467.1531845566578L1234.9042498933609 511.40452165565415L1216.7447132691505 511.40452165565415ZM1336.196585468405 388.56584017188425L1336.196585468405 388.56584017188425Q1330.7153020210974 388.56584017188425 1327.3730560166412 385.13446760730955Q1324.053091652215 381.68081340270504 1324.053091652215 375.41967255435765L1324.053091652215 375.41967255435765Q1324.053091652215 368.4455192250596 1327.3730560166412 365.54890602119787Q1330.7153020210974 362.652292817336 1336.2857120285237 362.652292817336L1336.2857120285237 362.652292817336Q1342.0789384362472 362.652292817336 1345.3320578805844 365.77172242149487Q1348.5628956848916 368.91343366568344 1348.5628956848916 375.41967255435765L1348.5628956848916 375.41967255435765Q1348.5628956848916 381.52484192249716 1345.287494600525 385.0453410471907Q1341.9898118761284 388.56584017188425 1336.196585468405 388.56584017188425ZM1326.4149454953638 511.40452165565415L1326.4149454953638 403.5391022718468L1346.2233234817725 403.5391022718468L1346.2233234817725 511.40452165565415L1326.4149454953638 511.40452165565415ZM1366.4327709887161 511.40452165565415L1366.4327709887161 403.5391022718468L1381.5620045688866 403.5391022718468L1383.5005072514712 415.0587101672049L1383.5005072514712 415.125555087294Q1388.13508837765 407.6834873173721 1394.0174413454922 404.9874088737777Q1399.877512673305 402.2913304301832 1405.8267105612365 402.2913304301832L1405.8267105612365 402.2913304301832Q1415.2295626537727 402.2913304301832 1420.3989031406643 408.95354079906537Q1425.5682436275563 415.5934695279178 1425.5682436275563 428.7619187854741L1425.5682436275563 428.7619187854741L1425.5682436275563 511.40452165565415L1405.7598656411476 511.40452165565415L1405.7598656411476 431.1014909885933Q1405.7598656411476 423.99364781911703 1403.5539832782065 421.20844281540377Q1401.3703825552955 418.4232378116905 1397.1368709496512 418.4232378116905L1397.1368709496512 418.4232378116905Q1394.1734128257 418.4232378116905 1391.3436445419277 420.38402213430464Q1388.5138762581548 422.3448064569188 1386.2411489751248 425.77617902149353L1386.2411489751248 425.77617902149353L1386.2411489751248 511.40452165565415L1366.4327709887161 511.40452165565415ZM1442.9702044907567 467.2200294767469L1442.9702044907567 467.2200294767469L1442.9702044907567 446.85461048959553Q1442.9702044907567 434.48830027310856 1445.0869602935788 426.33322002223616Q1447.2037160964007 418.1781397713637 1450.679651941035 413.32074224488775Q1454.1778694256989 408.46334471841186 1458.3668177512834 406.1237725152927Q1462.5557660768684 403.7842003121736 1466.7001511223937 403.02662455116354Q1470.844536167919 402.2913304301832 1474.2981903725235 402.2913304301832L1474.2981903725235 402.2913304301832Q1481.4283151820293 402.2913304301832 1487.4666396300797 405.2993518341936Q1493.4826824381005 408.3073732382039 1497.1368714029725 415.63803280797725Q1500.7687787278144 422.96869237775053 1500.7687787278144 435.9588885150692L1500.7687787278144 435.9588885150692Q1500.7687787278144 442.4651274037434 1500.0780478868935 449.2387459727741Q1499.365035405943 456.01236454180474 1498.1841084843684 461.18170502869657L1498.1841084843684 461.18170502869657L1462.8677090372842 461.18170502869657L1462.8677090372842 472.16655356334167Q1462.8677090372842 486.24855006211595 1465.251844520463 492.0640581098692Q1467.6359800036414 497.85728451759286 1474.3873169326423 497.85728451759286L1474.3873169326423 497.85728451759286Q1478.063787537544 497.85728451759286 1481.0272456614946 494.67100999334485Q1484.0129854254753 491.5070171091266 1484.0129854254753 482.9731489777492L1484.0129854254753 482.9731489777492L1484.0129854254753 478.2717229314812L1500.3008642871903 478.2717229314812L1500.3008642871903 483.19596537804625Q1500.3008642871903 498.54801535851374 1492.9924863574468 505.56673196787114Q1485.6618267876736 512.5854485772286 1471.8026466891963 512.5854485772286L1471.8026466891963 512.5854485772286Q1457.8543400306005 512.5854485772286 1450.4122722606785 501.9348246430291Q1442.9702044907567 491.26191906879984 1442.9702044907567 467.2200294767469ZM1462.8677090372842 447.879565930962L1482.2972991431882 447.879565930962Q1482.453270623396 446.1415980086449 1482.520115543485 442.66566216401077Q1482.609242103604 439.18972631937663 1482.609242103604 437.0729705165545L1482.609242103604 437.0729705165545Q1482.609242103604 426.33322002223616 1480.3365148205737 421.720920536087Q1478.063787537544 417.08633940990813 1473.1172634509492 417.019494489819L1473.1172634509492 417.019494489819Q1467.8810780439683 417.019494489819 1465.3632527206112 422.30024317685934Q1462.8677090372842 427.5809918638997 1462.8677090372842 441.52929852249576L1462.8677090372842 441.52929852249576L1462.8677090372842 447.879565930962ZM1527.0165506828082 388.56584017188425L1527.0165506828082 388.56584017188425Q1521.5352672355004 388.56584017188425 1518.2153028710743 385.13446760730955Q1514.8730568666185 381.68081340270504 1514.8730568666185 375.41967255435765L1514.8730568666185 375.41967255435765Q1514.8730568666185 368.4455192250596 1518.2153028710743 365.54890602119787Q1521.5352672355004 362.652292817336 1527.1056772429272 362.652292817336L1527.1056772429272 362.652292817336Q1532.8989036506505 362.652292817336 1536.1520230949877 365.77172242149487Q1539.4051425393247 368.91343366568344 1539.4051425393247 375.41967255435765L1539.4051425393247 375.41967255435765Q1539.4051425393247 381.52484192249716 1536.1074598149282 385.0453410471907Q1532.8097770905317 388.56584017188425 1527.0165506828082 388.56584017188425ZM1517.2349107097673 511.40452165565415L1517.2349107097673 403.5391022718468L1537.043288696176 403.5391022718468L1537.043288696176 511.40452165565415L1517.2349107097673 511.40452165565415ZM1557.2527362031194 511.40452165565415L1557.2527362031194 403.5391022718468L1571.7358022224284 403.5391022718468L1573.4737701447455 414.5016691664622Q1576.6823263090232 408.39649979832274 1580.9826828347564 405.343915114253Q1585.3053210005194 402.2913304301832 1589.7616490064606 402.2913304301832L1589.7616490064606 402.2913304301832Q1606.4505973887105 402.2913304301832 1606.4505973887105 423.2806353381664L1606.4505973887105 423.2806353381664Q1606.4505973887105 425.93215050170147 1605.6707399876707 430.29935194752386Q1604.890882586631 434.64427175331656 1603.7768005851458 437.9196728376834L1603.7768005851458 437.9196728376834L1590.0067470467875 437.9196728376834L1590.0067470467875 429.54177618651386Q1590.0067470467875 423.03553729783965 1588.0459627241733 420.74052837477996Q1586.0851784015592 418.4232378116905 1583.1885651976975 418.4232378116905L1583.1885651976975 418.4232378116905Q1579.5120945927958 418.4232378116905 1577.083395829558 424.2164642194141L1577.083395829558 424.2164642194141L1577.083395829558 511.40452165565415L1557.2527362031194 511.40452165565415ZM1645.6885654810228 512.5854485772286L1645.6885654810228 512.5854485772286Q1640.5192249941313 512.5854485772286 1635.2830395871504 511.0480154151789Q1630.0245725401398 509.5328638931589 1625.590526174228 504.8314378468909Q1621.1787614483462 500.13001180062287 1618.5049646447815 490.61575150793834Q1615.8534494812466 481.0792095752241 1615.8534494812466 465.10327367392483L1615.8534494812466 465.10327367392483L1615.8534494812466 448.19150889137785Q1615.8534494812466 432.4383893903757 1618.5940912049005 423.236072058107Q1621.3347329285543 414.0337547258384 1625.7910609344956 409.53286343983774Q1630.2696705804665 405.0319721538371 1635.5058559874471 403.65051047199535Q1640.7643230344581 402.2913304301832 1645.7776920411418 402.2913304301832L1645.7776920411418 402.2913304301832Q1650.6350895676178 402.2913304301832 1655.8044300545096 403.5836655519062Q1660.9737705414016 404.87600067362916 1665.3632536272537 409.287765399511Q1669.7527367131056 413.7218117654225 1672.4933784367597 423.01325565780996Q1675.2340201604136 432.2824179101677 1675.2340201604136 448.19150889137785L1675.2340201604136 448.19150889137785L1675.2340201604136 465.10327367392483Q1675.2340201604136 480.85639317492706 1672.4042518766407 490.30380854752246Q1669.5967652328977 499.7289422800882 1665.1181555869268 504.5417765265047Q1660.6618275809856 509.3768924129509 1655.5147687341234 510.98117049508977Q1650.389991527291 512.5854485772286 1645.6885654810228 512.5854485772286ZM1645.8445369612311 497.85728451759286L1645.8445369612311 497.85728451759286Q1651.1698489283308 497.85728451759286 1653.2420414510934 491.97493154975047Q1655.336515613886 486.092578581908 1655.336515613886 470.9856266417673L1655.336515613886 470.9856266417673L1655.336515613886 444.11396876594165Q1655.336515613886 428.91789026568205 1653.2420414510934 422.96869237775053Q1651.1698489283308 417.019494489819 1645.8445369612311 417.019494489819L1645.8445369612311 417.019494489819Q1640.296408593834 417.019494489819 1638.0236813108042 422.96869237775053Q1635.750954027774 428.91789026568205 1635.750954027774 444.11396876594165L1635.750954027774 444.11396876594165L1635.750954027774 470.9856266417673Q1635.750954027774 486.092578581908 1638.0236813108042 491.97493154975047Q1640.296408593834 497.85728451759286 1645.8445369612311 497.85728451759286ZM1687.756301857108 488.83322030556184L1687.756301857108 488.83322030556184Q1687.756301857108 485.3127211808683 1688.4247510579992 482.0373200965015Q1689.0932002588904 478.739637372105 1689.7170861797224 476.77885304949086L1689.7170861797224 476.77885304949086L1703.6653928383187 476.77885304949086Q1703.6653928383187 488.52127734514596 1706.6065693222397 493.2004217513843Q1709.525464166131 497.85728451759286 1715.0290292534685 497.85728451759286L1715.0290292534685 497.85728451759286Q1718.9283162586669 497.85728451759286 1721.1341986216082 495.4731490344143Q1723.317799344519 493.06673191120603 1723.317799344519 489.7913308268392L1723.317799344519 489.7913308268392Q1723.317799344519 486.33767662223477 1721.4907048620832 483.1291204579571Q1719.6413287396178 479.92056429367943 1716.4327725753399 476.06584056854024L1716.4327725753399 476.06584056854024L1702.5735924768626 458.9981043057854Q1696.9140559093173 451.86797949627936 1692.5022911834355 444.0694054858822Q1688.0682448175241 436.2931131155148 1688.0682448175241 426.8902610229788L1688.0682448175241 426.8902610229788Q1688.0682448175241 418.4900827317796 1691.7447154224258 413.0533625645313Q1695.443467667357 407.61664239728304 1701.4595104753773 404.9428455937183Q1707.4978349234277 402.2913304301832 1714.5388331728152 402.2913304301832L1714.5388331728152 402.2913304301832Q1726.2144125483812 402.2913304301832 1733.188565877679 407.8840220776395Q1740.162719206977 413.47671372509575 1740.162719206977 424.6843786600379L1740.162719206977 424.6843786600379Q1740.162719206977 428.3608492649394 1739.4942700060858 431.9259116696924Q1738.8258208051946 435.4909740744454 1738.201934884363 438.0087993978022L1738.201934884363 438.0087993978022L1724.4987262660936 438.0087993978022Q1724.3427547858857 427.35817546360266 1721.980900942737 422.18883497671084Q1719.6413287396178 417.019494489819 1714.226890212399 417.019494489819L1714.226890212399 417.019494489819Q1709.7037172863686 417.019494489819 1707.9657493640518 419.82698113356196Q1706.2500630817642 422.65674941733465 1706.2500630817642 426.0881219819094L1706.2500630817642 426.0881219819094Q1706.2500630817642 429.85371914692973 1708.1217208442597 432.8840221909698Q1710.0156602467848 435.89204359498007 1712.9791183707355 439.65764076000045L1712.9791183707355 439.65764076000045L1728.643111311619 458.5970347852506Q1730.9158385946491 461.4268030690233 1733.9015783586299 465.771722874816Q1736.8650364825805 470.1166426806087 1739.1154821255807 475.57564448788673Q1741.3436461285517 481.012364655135 1741.3436461285517 487.36263206360127L1741.3436461285517 487.36263206360127Q1741.3436461285517 498.7039868387217 1734.2135213190456 505.65585852799Q1727.0833965095396 512.5854485772286 1713.8481023318939 512.5854485772286L1713.8481023318939 512.5854485772286Q1706.6288509622693 512.5854485772286 1700.679653074338 510.357284574258Q1694.7304551864065 508.10683893125764 1691.254519341772 502.9152168043361Q1687.756301857108 497.7013130373849 1687.756301857108 488.83322030556184Z " fill="#000000" transform="matrix(0.5024855615141205,0,0,0.5024855615141205,0,80.08605320602315)"/></g></svg>